<svg width="40" height="40" viewBox="0 0 40 40" fill="none" xmlns="http://www.w3.org/2000/svg">
<path d="M20.0002 3.12565C19.5675 3.12565 19.2197 3.47409 19.2197 3.90612C19.2197 4.30823 19.5222 4.64284 19.9221 4.68252C20.385 4.72846 20.7807 4.36791 20.7807 3.90612C20.7807 3.47346 20.4322 3.12565 20.0002 3.12565Z" fill="white"/>
<path d="M35.625 4.6875C33.4711 4.6875 31.7188 2.93516 31.7188 0.78125C31.7188 0.349844 31.3689 0 30.9375 0H9.0625C8.63109 0 8.28125 0.349844 8.28125 0.78125C8.28125 2.93516 6.52891 4.6875 4.375 4.6875C3.94359 4.6875 3.59375 5.03734 3.59375 5.46875V18.218C3.59375 28.1537 10.0699 37.0566 19.7756 39.9671C19.8488 39.989 19.9244 40 20 40C20.0756 40 20.1513 39.989 20.2245 39.967C29.7199 37.1187 36.4062 28.371 36.4062 18.218V5.46875C36.4062 5.03734 36.0564 4.6875 35.625 4.6875ZM34.8438 18.218C34.8438 27.5498 28.889 35.6314 20 38.4018C11.1819 35.6535 5.15625 27.4988 5.15625 18.218V6.19438C7.54773 5.85078 9.44453 3.95398 9.78813 1.5625H30.2119C30.5555 3.95398 32.4523 5.85078 34.8438 6.19438V18.218Z" fill="white"/>
<path d="M32.8134 7.22578C31.1842 6.51227 29.894 5.22203 29.1805 3.59281C29.0559 3.30859 28.7752 3.125 28.4648 3.125H23.1234C22.692 3.125 22.3422 3.47484 22.3422 3.90625C22.3422 4.33766 22.692 4.6875 23.1234 4.6875H27.9709C28.7963 6.3032 30.103 7.60992 31.7188 8.43539V18.218C31.7188 25.8635 27.129 32.4604 20 35.1011C12.871 32.4603 8.28125 25.8635 8.28125 18.218V8.43539C9.89695 7.60992 11.2037 6.3032 12.0291 4.6875H16.8766C17.308 4.6875 17.6578 4.33766 17.6578 3.90625C17.6578 3.47484 17.308 3.125 16.8766 3.125H11.5352C11.2248 3.125 10.9441 3.30867 10.8195 3.59281C10.106 5.22203 8.81578 6.51227 7.18656 7.22578C6.90242 7.35031 6.71875 7.63117 6.71875 7.94141V18.218C6.71875 26.594 11.8993 33.894 19.7394 36.6684C19.8237 36.6983 19.9118 36.7132 20 36.7132C20.0882 36.7132 20.1763 36.6983 20.2606 36.6684C28.0941 33.8963 33.2812 26.6008 33.2812 18.218V7.94141C33.2812 7.63109 33.0976 7.35031 32.8134 7.22578Z" fill="white"/>
<path d="M20 11.4062C16.123 11.4062 12.9688 14.5605 12.9688 18.4375C12.9688 22.3145 16.123 25.4688 20 25.4688C23.877 25.4688 27.0312 22.3145 27.0312 18.4375C27.0312 14.5605 23.877 11.4062 20 11.4062ZM20 23.9062C16.9845 23.9062 14.5312 21.453 14.5312 18.4375C14.5312 15.422 16.9845 12.9688 20 12.9688C23.0155 12.9688 25.4688 15.422 25.4688 18.4375C25.4688 21.453 23.0155 23.9062 20 23.9062Z" fill="white"/>
<path d="M23.6775 16.3225C23.3723 16.0175 22.8778 16.0175 22.5726 16.3225L19.2188 19.6763L18.2087 18.6663C17.9036 18.3613 17.409 18.3613 17.1038 18.6663C16.7987 18.9714 16.7987 19.4661 17.1038 19.7713L18.6663 21.3337C18.819 21.4862 19.0188 21.5625 19.2188 21.5625C19.4188 21.5625 19.6187 21.4862 19.7712 21.3337L23.6775 17.4274C23.9826 17.1223 23.9826 16.6277 23.6775 16.3225Z" fill="white"/>
</svg>
