<svg width="32" height="40" viewBox="0 0 32 40" fill="none" xmlns="http://www.w3.org/2000/svg">
<path d="M31.4866 35.0757L26.4264 26.3112C27.2657 25.6044 27.8457 24.5993 28.0007 23.4603C28.1059 22.6858 28.5042 21.9958 29.1223 21.5173C30.7245 20.2771 31.3076 18.1013 30.5402 16.226C30.2441 15.5026 30.2441 14.7058 30.5402 13.9825C31.3076 12.1072 30.7245 9.93143 29.1223 8.69116C28.5042 8.21273 28.1058 7.5227 28.0007 6.74821C27.7276 4.74056 26.1347 3.14766 24.127 2.87473C23.3526 2.7694 22.6626 2.37106 22.1842 1.75299C20.9439 0.150718 18.7682 -0.432261 16.8928 0.335122C16.1694 0.631182 15.3726 0.631182 14.6493 0.335122C12.7742 -0.432339 10.5982 0.150718 9.35797 1.75299C8.87954 2.37106 8.18951 2.7694 7.41502 2.87473C5.40729 3.14774 3.81447 4.74056 3.54154 6.74829C3.43621 7.52278 3.03787 8.21281 2.41981 8.69124C0.817531 9.93151 0.234551 12.1074 1.00193 13.9826C1.29799 14.7059 1.29799 15.5027 1.00193 16.2261C0.234473 18.1013 0.817531 20.2771 2.41981 21.5174C3.03787 21.9958 3.43621 22.6859 3.54154 23.4603C3.69844 24.6143 4.29197 25.6306 5.14905 26.3386L0.104688 35.0757C-0.0533049 35.3494 -0.0309577 35.6913 0.161494 35.942C0.353867 36.1926 0.678213 36.3029 0.98365 36.2211L5.38049 35.0429L6.55356 39.4209C6.63537 39.7261 6.89299 39.952 7.20632 39.9933C7.24054 39.9978 7.27469 40 7.30852 40C7.58497 40 7.84423 39.8531 7.98495 39.6093L13.4281 30.1816C13.8408 30.1371 14.2518 30.0361 14.6492 29.8734C15.3726 29.5773 16.1695 29.5773 16.8927 29.8734C17.3071 30.043 17.7362 30.1464 18.1667 30.1876L23.6062 39.6093C23.747 39.8532 24.0062 40 24.2827 40C24.3166 40 24.3506 39.9978 24.385 39.9933C24.6983 39.952 24.9559 39.7261 25.0377 39.4209L26.2109 35.0429L30.6077 36.2211C30.9127 36.3029 31.2374 36.1928 31.4298 35.942C31.6221 35.6913 31.6446 35.3494 31.4866 35.0757ZM7.57473 37.1943L6.68764 33.8838C6.63396 33.6836 6.50309 33.5129 6.32361 33.4093C6.14412 33.3057 5.93097 33.2776 5.7307 33.3312L2.40121 34.2233L6.50676 27.1123C6.79704 27.2162 7.10091 27.2911 7.41494 27.3339C8.18944 27.4392 8.87946 27.8375 9.35789 28.4556C9.9651 29.24 10.7967 29.7795 11.7074 30.0365L7.57473 37.1943ZM14.0573 28.4271C12.8298 28.9296 11.4056 28.5479 10.5936 27.4991C9.86274 26.5549 8.80859 25.9462 7.62544 25.7854C6.31126 25.6067 5.26852 24.5641 5.0899 23.2498C4.92902 22.0666 4.32041 21.0126 3.3762 20.2816C2.32737 19.4698 1.94575 18.0454 2.44809 16.8179C2.90043 15.7129 2.90043 14.4957 2.44809 13.3906C1.94575 12.1632 2.32737 10.7388 3.3762 9.92698C4.32041 9.19608 4.92902 8.14202 5.0899 6.95879C5.2686 5.6446 6.31126 4.60187 7.62544 4.42317C8.80859 4.26236 9.86274 3.65375 10.5936 2.70955C11.1662 1.96982 12.0431 1.56203 12.9411 1.56203C13.3164 1.56203 13.6954 1.63337 14.0572 1.78144C15.1624 2.23369 16.3796 2.23369 17.4846 1.78144C18.712 1.27902 20.1364 1.66071 20.9483 2.70955C21.6791 3.65375 22.7332 4.26236 23.9163 4.42317C25.2305 4.60187 26.2732 5.64453 26.4519 6.95879C26.6128 8.14202 27.2214 9.19608 28.1656 9.92698C29.2144 10.7388 29.5961 12.1631 29.0937 13.3906C28.6415 14.4957 28.6415 15.7129 29.0937 16.8179C29.5961 18.0454 29.2144 19.4698 28.1656 20.2816C27.2214 21.0125 26.6128 22.0666 26.4519 23.2497C26.2732 24.564 25.2305 25.6067 23.9164 25.7853C22.7331 25.9461 21.6791 26.5547 20.9482 27.499C20.1363 28.5479 18.712 28.9295 17.4846 28.4271C16.3795 27.9749 15.1625 27.9749 14.0573 28.4271ZM25.8605 33.3312C25.4435 33.2194 25.0153 33.467 24.9035 33.8838L24.0164 37.1943L19.8767 30.0241C20.7708 29.7625 21.5862 29.2279 22.1841 28.4556C22.6625 27.8374 23.3525 27.4391 24.1269 27.3339C24.4557 27.2892 24.7731 27.2084 25.0755 27.0969L29.1899 34.2233L25.8605 33.3312Z" fill="white"/>
<path d="M12.2205 12.2143L9.78941 14.6452C9.6429 14.7918 9.56055 14.9905 9.56055 15.1978C9.56055 15.405 9.6429 15.6038 9.78941 15.7503L14.3489 20.3099C14.4954 20.4564 14.6942 20.5387 14.9014 20.5387C15.1087 20.5387 15.3074 20.4564 15.4539 20.3099L21.8026 13.9612C22.1077 13.6561 22.1077 13.1614 21.8026 12.8562L19.3716 10.4252C19.225 10.2786 19.0263 10.1963 18.8191 10.1963C18.6118 10.1963 18.4131 10.2786 18.2666 10.4252L14.9015 13.7903L13.3257 12.2143C13.1791 12.0678 12.9804 11.9855 12.7731 11.9855C12.5658 11.9854 12.367 12.0677 12.2205 12.2143ZM14.3489 15.4478C14.4954 15.5943 14.6941 15.6767 14.9014 15.6767C15.1086 15.6767 15.3074 15.5943 15.4539 15.4478L18.8189 12.0827L20.145 13.4087L14.9014 18.6523L11.4469 15.1978L12.773 13.8718L14.3489 15.4478Z" fill="white"/>
<path d="M25.9532 15.3668C25.9532 13.2912 25.3312 11.295 24.1544 9.59394C23.0053 7.93298 21.409 6.66287 19.5382 5.92103C19.1369 5.76203 18.683 5.95823 18.5239 6.35938C18.3648 6.76054 18.5611 7.21467 18.9621 7.37376C22.2598 8.68138 24.3906 11.8189 24.3906 15.3668C24.3906 20.1062 20.5348 23.9619 15.7955 23.9619C11.0562 23.9619 7.20043 20.1062 7.20043 15.3668C7.20043 11.8188 9.33123 8.6813 12.6288 7.37368C13.03 7.21459 13.2263 6.76046 13.0672 6.3593C12.9081 5.95815 12.4539 5.76187 12.0528 5.92096C10.182 6.66287 8.58572 7.9329 7.43656 9.59386C6.25974 11.2949 5.6377 13.2911 5.6377 15.3668C5.6377 20.9678 10.1945 25.5246 15.7955 25.5246C21.3965 25.5246 25.9532 20.9679 25.9532 15.3668Z" fill="white"/>
<path d="M15.796 6.77172C16.0015 6.77172 16.2031 6.6889 16.3484 6.54278C16.4937 6.39745 16.5774 6.19663 16.5774 5.99035C16.5774 5.78485 16.4938 5.58326 16.3484 5.43793C16.2031 5.29259 16.0015 5.20898 15.796 5.20898C15.5905 5.20898 15.3889 5.29259 15.2436 5.43793C15.0983 5.58326 15.0146 5.78485 15.0146 5.99035C15.0146 6.19663 15.0983 6.39745 15.2436 6.54278C15.3889 6.6889 15.5905 6.77172 15.796 6.77172Z" fill="white"/>
</svg>
