<svg width="42" height="42" viewBox="0 0 42 42" fill="none" xmlns="http://www.w3.org/2000/svg">
<path d="M33.4449 20.8978C33.4449 24.2158 32.1381 27.2479 30.0145 29.4735C29.0855 30.4638 27.9931 31.2908 26.768 31.9238C25.5021 32.5976 24.1034 33.0468 22.6128 33.2408C22.0922 33.3122 21.5511 33.3429 20.9998 33.3429C20.4485 33.3429 19.9176 33.3122 19.3867 33.2408C17.9064 33.0468 16.4975 32.5976 15.2315 31.9238C14.0166 31.2908 12.9242 30.4638 11.985 29.4735C9.85125 27.2479 8.55469 24.2158 8.55469 20.8978C8.55469 14.0269 14.1187 8.46289 20.9896 8.46289C27.8604 8.46289 33.4449 14.0269 33.4449 20.8978Z" stroke="white" stroke-miterlimit="10" stroke-linecap="round" stroke-linejoin="round"/>
<path d="M21 3.48096C29.78 3.48096 37.0387 9.97405 38.2434 18.4171" stroke="white" stroke-miterlimit="10" stroke-linecap="round" stroke-linejoin="round"/>
<path d="M23.4911 1L21 3.49105L23.4911 5.9719" stroke="white" stroke-miterlimit="10" stroke-linecap="round" stroke-linejoin="round"/>
<path d="M21.0003 38.5187C12.2203 38.5187 4.96153 32.0256 3.75684 23.5825" stroke="white" stroke-miterlimit="10" stroke-linecap="round" stroke-linejoin="round"/>
<path d="M18.5088 40.9992L20.9999 38.5082L18.5088 36.0273" stroke="white" stroke-miterlimit="10" stroke-linecap="round" stroke-linejoin="round"/>
<path d="M3.48047 20.9993C3.48047 12.2193 9.97356 4.96055 18.4166 3.75586" stroke="white" stroke-miterlimit="10" stroke-linecap="round" stroke-linejoin="round"/>
<path d="M1 18.5083L3.49103 20.9994L5.9719 18.5083" stroke="white" stroke-miterlimit="10" stroke-linecap="round" stroke-linejoin="round"/>
<path d="M38.5192 20.9995C38.5192 29.7795 32.0261 37.0383 23.583 38.243" stroke="white" stroke-miterlimit="10" stroke-linecap="round" stroke-linejoin="round"/>
<path d="M41.0002 23.4906L38.5194 20.9995L36.0283 23.4906" stroke="white" stroke-miterlimit="10" stroke-linecap="round" stroke-linejoin="round"/>
<path d="M20.4487 26.0126C20.4487 26.176 20.4385 26.3189 20.4283 26.4312C20.4181 26.5435 20.3977 26.6456 20.367 26.7171C20.3364 26.7885 20.3058 26.8396 20.2547 26.8702C20.2139 26.9008 20.1628 26.9212 20.1016 26.9212H13.782C13.6595 26.9212 13.5472 26.911 13.4553 26.8906C13.3635 26.8702 13.292 26.8294 13.2307 26.7579C13.1695 26.6966 13.1286 26.5945 13.1082 26.472C13.0878 26.3495 13.0674 26.1862 13.0674 25.9922C13.0674 25.8084 13.0776 25.6451 13.098 25.5124C13.1184 25.3796 13.1491 25.2571 13.1899 25.155C13.2307 25.0529 13.292 24.9508 13.3635 24.8488C13.4349 24.7467 13.5268 24.6446 13.6391 24.5221L15.538 22.4802C15.9158 22.082 16.2221 21.7247 16.4569 21.398C16.6917 21.0713 16.8652 20.7753 16.998 20.5098C17.1307 20.2444 17.2124 19.9892 17.2634 19.7645C17.3145 19.5399 17.3349 19.3256 17.3349 19.1214C17.3349 18.9376 17.3042 18.7538 17.243 18.5905C17.1817 18.4271 17.1001 18.274 16.9775 18.1515C16.8652 18.029 16.7121 17.9269 16.5386 17.8554C16.365 17.7839 16.1608 17.7533 15.9158 17.7533C15.5789 17.7533 15.2828 17.7942 15.0276 17.8758C14.7723 17.9575 14.5477 18.0596 14.3538 18.1617C14.1598 18.2638 13.9964 18.3659 13.8637 18.4476C13.731 18.5394 13.6289 18.5803 13.5574 18.5803C13.5064 18.5803 13.4656 18.5599 13.4247 18.5292C13.3839 18.4986 13.3533 18.4373 13.3328 18.3557C13.3124 18.274 13.292 18.1719 13.2818 18.0392C13.2716 17.9065 13.2614 17.7431 13.2614 17.5491C13.2614 17.4164 13.2614 17.3143 13.2716 17.2224C13.2818 17.1306 13.292 17.0591 13.3124 16.9876C13.3328 16.9264 13.3532 16.8651 13.3839 16.8141C13.4145 16.763 13.4656 16.712 13.537 16.6405C13.6085 16.569 13.7412 16.4874 13.925 16.3853C14.1189 16.2832 14.3435 16.1811 14.6294 16.079C14.905 15.9769 15.2114 15.8952 15.5483 15.8238C15.8852 15.7523 16.2323 15.7217 16.5896 15.7217C17.1613 15.7217 17.6616 15.7931 18.0904 15.9361C18.5191 16.079 18.8765 16.2832 19.1521 16.5384C19.438 16.7936 19.6422 17.0999 19.7851 17.4573C19.928 17.8146 19.9893 18.1923 19.9893 18.6007C19.9893 18.958 19.9587 19.3051 19.8872 19.6522C19.8157 19.9994 19.683 20.3669 19.4584 20.765C19.244 21.1632 18.9377 21.6022 18.5498 22.0923C18.1618 22.5721 17.6411 23.1336 16.998 23.7768L15.7116 25.0938H20.0403C20.1016 25.0938 20.1526 25.1142 20.1935 25.1448C20.2445 25.1755 20.2853 25.2265 20.316 25.298C20.3466 25.3694 20.3772 25.4613 20.3874 25.5736C20.4487 25.7165 20.4487 25.8595 20.4487 26.0126Z" fill="white"/>
<path d="M29.6064 23.7668C29.6064 24.0527 29.5758 24.2773 29.5145 24.4202C29.4533 24.5733 29.3716 24.6448 29.2695 24.6448H28.2894V26.6356C28.2894 26.6969 28.269 26.7377 28.2384 26.7785C28.2077 26.8194 28.1465 26.8602 28.0648 26.8806C27.9831 26.9113 27.8708 26.9317 27.7381 26.9419C27.6054 26.9521 27.4318 26.9623 27.2072 26.9623C27.003 26.9623 26.8295 26.9521 26.6968 26.9419C26.5538 26.9317 26.4517 26.9113 26.3701 26.8806C26.2884 26.85 26.2271 26.8194 26.1965 26.7785C26.1659 26.7377 26.1455 26.6867 26.1455 26.6356V24.6448H21.9392C21.8576 24.6448 21.7861 24.6346 21.7249 24.6142C21.6636 24.5938 21.6126 24.5529 21.5717 24.4815C21.5309 24.41 21.5003 24.3079 21.4798 24.1752C21.4594 24.0425 21.4492 23.8689 21.4492 23.6443C21.4492 23.4605 21.4492 23.3074 21.4594 23.1747C21.4696 23.0419 21.4798 22.9194 21.5003 22.8173C21.5207 22.7153 21.5513 22.603 21.5819 22.5111C21.6228 22.4192 21.6636 22.3171 21.7249 22.2048L25.1347 16.1813C25.1654 16.1303 25.2062 16.0894 25.2777 16.0486C25.3492 16.0078 25.441 15.9771 25.5635 15.9567C25.6861 15.9363 25.8392 15.9159 26.0229 15.9057C26.2067 15.8955 26.4313 15.8853 26.707 15.8853C26.9928 15.8853 27.2379 15.8955 27.442 15.9057C27.6462 15.9159 27.8096 15.9465 27.9321 15.9771C28.0546 16.0078 28.1465 16.0486 28.1975 16.0894C28.2486 16.1303 28.2792 16.1915 28.2792 16.2528V22.8684H29.2593C29.3512 22.8684 29.4226 22.9399 29.4941 23.0726C29.5758 23.2155 29.6064 23.4401 29.6064 23.7668ZM26.1455 17.8148H26.125L23.2256 22.8684H26.1353V17.8148H26.1455Z" fill="white"/>
</svg>
