<svg width="16" height="15" viewBox="0 0 16 15" fill="none" xmlns="http://www.w3.org/2000/svg">
<path fill-rule="evenodd" clip-rule="evenodd" d="M6.5 1C3.46243 1 1 3.46243 1 6.5C1 9.53757 3.46243 12 6.5 12C8.14263 12 9.6166 11.2805 10.6251 10.1379C11.4811 9.16801 12 7.89521 12 6.5C12 3.46243 9.53757 1 6.5 1ZM0 6.5C0 2.91015 2.91015 0 6.5 0C10.0899 0 13 2.91015 13 6.5C13 7.96958 12.5118 9.3261 11.6892 10.4149L15.8336 14.1276C16.0393 14.3118 16.0567 14.6279 15.8724 14.8336C15.6882 15.0393 15.3721 15.0567 15.1664 14.8724L11.0271 11.1643C9.85714 12.2999 8.26007 13 6.5 13C2.91015 13 0 10.0899 0 6.5Z" fill="#828282"/>
</svg>
