<svg width="40" height="40" viewBox="0 0 40 40" fill="none" xmlns="http://www.w3.org/2000/svg">
<path d="M9.33301 26.333C7.12699 26.333 5.33301 28.127 5.33301 30.333C5.33301 32.539 7.12699 34.333 9.33301 34.333C11.539 34.333 13.333 32.539 13.333 30.333C13.333 28.127 11.5389 26.333 9.33301 26.333ZM9.33301 32.9996C7.8623 32.9996 6.66637 31.8036 6.66637 30.333C6.66637 28.8623 7.86238 27.6664 9.33301 27.6664C10.8036 27.6664 11.9996 28.8624 11.9996 30.333C11.9996 31.8036 10.8036 32.9996 9.33301 32.9996Z" fill="#F2F2F2"/>
<path d="M32 26.3335C29.794 26.3335 28 28.1275 28 30.3335C28 32.5395 29.794 34.3335 32 34.3335C34.206 34.3335 36 32.5395 36 30.3335C36 28.1275 34.206 26.3335 32 26.3335ZM32 33.0001C30.5293 33.0001 29.3334 31.8041 29.3334 30.3335C29.3334 28.8628 30.5294 27.6669 32 27.6669C33.4707 27.6669 34.6666 28.8629 34.6666 30.3335C34.6666 31.8041 33.4707 33.0001 32 33.0001Z" fill="#F2F2F2"/>
<path d="M39.8936 22.6394L33.8936 13.306C33.771 13.1153 33.5596 13 33.3329 13H25.9996C25.631 13 25.333 13.2987 25.333 13.6666V30.3333C25.333 30.702 25.631 30.9999 25.9996 30.9999H28.6663V29.6666H26.6663V14.3334H32.9689L38.6663 23.196V29.6667H35.3329V31H39.3329C39.7016 31 39.9996 30.702 39.9996 30.3334V23C39.9996 22.8727 39.963 22.7466 39.8936 22.6394Z" fill="#F2F2F2"/>
<path d="M29.3333 21.6665V16.9999H34.6666V15.6665H28.6666C28.298 15.6665 28 15.9652 28 16.3331V22.3332C28 22.7018 28.298 22.9998 28.6666 22.9998H38.6666V21.6664H29.3333V21.6665Z" fill="#F2F2F2"/>
<path d="M26 8.3335H0.666641C0.298672 8.3335 0 8.63217 0 9.00014V30.3335C0 30.7022 0.298672 31.0001 0.666641 31.0001H6V29.6668H1.33336V9.66678H25.3334V29.6668H12.6666V31.0001H26C26.3687 31.0001 26.6666 30.7022 26.6666 30.3335V9.00014C26.6666 8.63217 26.3687 8.3335 26 8.3335Z" fill="#F2F2F2"/>
<path d="M4.66699 27H0.666992V28.3334H4.66699V27Z" fill="#F2F2F2"/>
<path d="M25.3333 27H14V28.3334H25.3333V27Z" fill="#F2F2F2"/>
<path d="M39.3336 27H36.667V28.3334H39.3336V27Z" fill="#F2F2F2"/>
<path d="M26.0004 11H2.66699V12.3334H26.0004V11Z" fill="#F2F2F2"/>
<path d="M10.0004 29.6665H8.66699V30.9999H10.0004V29.6665Z" fill="#F2F2F2"/>
<path d="M32.6664 29.6665H31.333V30.9999H32.6664V29.6665Z" fill="#F2F2F2"/>
<path d="M12.0004 5.6665H2.66699V6.99986H12.0004V5.6665Z" fill="#F2F2F2"/>
<path d="M1.33336 5.6665H0V6.99986H1.33336V5.6665Z" fill="#F2F2F2"/>
</svg>
